<?xml version="1.0" encoding="UTF-8"?>
<svg xmlns="http://www.w3.org/2000/svg" xmlns:xlink="http://www.w3.org/1999/xlink" viewBox="0 0 50 50" version="1.1" width="50px" height="50px">
<g id="surface1">
<path style=" " d="M 16 6 C 15.476563 6 14.941406 6.183594 14.5625 6.5625 C 14.183594 6.941406 14 7.476563 14 8 L 14 11 L 3 11 C 2.476563 11 1.941406 11.183594 1.5625 11.5625 C 1.183594 11.941406 1 12.476563 1 13 L 1 41 C 1 41.523438 1.183594 42.058594 1.5625 42.4375 C 1.941406 42.816406 2.476563 43 3 43 L 47 43 C 47.523438 43 48.058594 42.816406 48.4375 42.4375 C 48.816406 42.058594 49 41.523438 49 41 L 49 13 C 49 12.476563 48.816406 11.941406 48.4375 11.5625 C 48.058594 11.183594 47.523438 11 47 11 L 36 11 L 36 8 C 36 7.476563 35.816406 6.941406 35.4375 6.5625 C 35.058594 6.183594 34.523438 6 34 6 Z M 16 8 L 34 8 L 34 11 C 34 11.523438 34.183594 12.058594 34.5625 12.4375 C 34.941406 12.816406 35.476563 13 36 13 L 47 13 L 47 41 L 3 41 L 3 13 L 14 13 C 14.523438 13 15.058594 12.816406 15.4375 12.4375 C 15.816406 12.058594 16 11.523438 16 11 Z M 25 12 C 17.261719 12 11 18.261719 11 26 C 11 33.738281 17.261719 40 25 40 C 32.738281 40 39 33.738281 39 26 C 39 18.261719 32.738281 12 25 12 Z M 25 14 C 31.664063 14 37 19.335938 37 26 C 37 32.664063 31.664063 38 25 38 C 18.335938 38 13 32.664063 13 26 C 13 19.335938 18.335938 14 25 14 Z M 25 15 C 18.953125 15 14 19.953125 14 26 C 14 32.046875 18.953125 37 25 37 C 31.046875 37 36 32.046875 36 26 C 36 19.953125 31.046875 15 25 15 Z M 42 15 C 40.355469 15 39 16.355469 39 18 C 39 19.644531 40.355469 21 42 21 C 43.644531 21 45 19.644531 45 18 C 45 16.355469 43.644531 15 42 15 Z M 25 17 C 29.953125 17 34 21.046875 34 26 C 34 30.953125 29.953125 35 25 35 C 20.046875 35 16 30.953125 16 26 C 16 21.046875 20.046875 17 25 17 Z M 42 17 C 42.5625 17 43 17.4375 43 18 C 43 18.5625 42.5625 19 42 19 C 41.4375 19 41 18.5625 41 18 C 41 17.4375 41.4375 17 42 17 Z "/>
</g>
</svg>
